<svg width="27" height="27" viewBox="0 0 27 27" fill="none" xmlns="http://www.w3.org/2000/svg">
<circle cx="13.5" cy="13.5" r="13" stroke="#F4F0EB"/>
<circle cx="4.79095" cy="19.5967" r="0.435484" fill="#F4F0EB"/>
<circle cx="5.66205" cy="17.8548" r="0.435484" fill="#F4F0EB"/>
<circle cx="7.40423" cy="16.1129" r="0.435484" fill="#F4F0EB"/>
<circle cx="10.0175" cy="15.2419" r="0.435484" fill="#F4F0EB"/>
<circle cx="10.8886" cy="13.5001" r="0.435484" fill="#F4F0EB"/>
<circle cx="9.14642" cy="11.7581" r="0.435484" fill="#F4F0EB"/>
<circle cx="8.27533" cy="9.1452" r="0.435484" fill="#F4F0EB"/>
<circle cx="9.14642" cy="6.53229" r="0.435484" fill="#F4F0EB"/>
<circle cx="10.8886" cy="4.79034" r="0.435484" fill="#F4F0EB"/>
<circle cx="13.5019" cy="3.91937" r="0.435484" fill="#F4F0EB"/>
<circle cx="16.1152" cy="4.79034" r="0.435484" fill="#F4F0EB"/>
<circle cx="17.8574" cy="6.53229" r="0.435484" fill="#F4F0EB"/>
<circle cx="17.8574" cy="11.7581" r="0.435484" fill="#F4F0EB"/>
<circle cx="18.7285" cy="9.1452" r="0.435484" fill="#F4F0EB"/>
<circle cx="16.1152" cy="13.5001" r="0.435484" fill="#F4F0EB"/>
<circle cx="16.9863" cy="15.2419" r="0.435484" fill="#F4F0EB"/>
<circle cx="19.5995" cy="16.1129" r="0.435484" fill="#F4F0EB"/>
<circle cx="21.3378" cy="17.8548" r="0.435484" fill="#F4F0EB"/>
<circle cx="22.2089" cy="19.5967" r="0.435484" fill="#F4F0EB"/>
<circle cx="13.5019" cy="14.3709" r="0.435484" fill="#F4F0EB"/>
</svg>
